<svg width="194" height="194" viewBox="0 0 194 194" fill="none" xmlns="http://www.w3.org/2000/svg">
<circle cx="97" cy="97" r="97" fill="black"/>
<path d="M62.5 64.125L40.3125 136H16.75L50.1875 45H65.125L62.5 64.125ZM80.875 136L58.625 64.125L55.75 45H70.875L104.5 136H80.875ZM80 102.062V119H33.3125V102.062H80ZM147.375 107.438V45H169.25V107.438C169.25 113.521 167.854 118.792 165.062 123.25C162.312 127.708 158.562 131.167 153.812 133.625C149.104 136.042 143.812 137.25 137.938 137.25C131.854 137.25 126.438 136.229 121.688 134.188C116.979 132.146 113.271 129 110.562 124.75C107.896 120.5 106.562 115.083 106.562 108.5H128.562C128.562 111.583 128.917 114 129.625 115.75C130.333 117.458 131.375 118.667 132.75 119.375C134.167 120.042 135.896 120.375 137.938 120.375C139.938 120.375 141.625 119.875 143 118.875C144.417 117.833 145.5 116.354 146.25 114.438C147 112.479 147.375 110.146 147.375 107.438Z" fill="white"/>
</svg>
